G04 (created by PCBNEW (2013-may-18)-stable) date Wed 29 Apr 2015 08:57:56 PM CEST*
%MOIN*%
G04 Gerber Fmt 3.4, Leading zero omitted, Abs format*
%FSLAX34Y34*%
G01*
G70*
G90*
G04 APERTURE LIST*
%ADD10C,0.00590551*%
%ADD11C,0.00787402*%
%ADD12C,0.00984252*%
%ADD13C,0.015*%
G04 APERTURE END LIST*
G54D10*
G54D11*
X41353Y-14865D02*
X41578Y-14865D01*
X41465Y-15259D02*
X41465Y-14865D01*
X41934Y-15259D02*
X41803Y-15071D01*
X41709Y-15259D02*
X41709Y-14865D01*
X41859Y-14865D01*
X41896Y-14884D01*
X41915Y-14903D01*
X41934Y-14940D01*
X41934Y-14996D01*
X41915Y-15034D01*
X41896Y-15053D01*
X41859Y-15071D01*
X41709Y-15071D01*
X42084Y-15240D02*
X42140Y-15259D01*
X42234Y-15259D01*
X42271Y-15240D01*
X42290Y-15221D01*
X42309Y-15184D01*
X42309Y-15146D01*
X42290Y-15109D01*
X42271Y-15090D01*
X42234Y-15071D01*
X42159Y-15053D01*
X42121Y-15034D01*
X42103Y-15015D01*
X42084Y-14978D01*
X42084Y-14940D01*
X42103Y-14903D01*
X42121Y-14884D01*
X42159Y-14865D01*
X42253Y-14865D01*
X42309Y-14884D01*
X42421Y-14865D02*
X42646Y-14865D01*
X42534Y-15259D02*
X42534Y-14865D01*
X37284Y-15259D02*
X37284Y-14865D01*
X37378Y-14865D01*
X37434Y-14884D01*
X37472Y-14921D01*
X37490Y-14959D01*
X37509Y-15034D01*
X37509Y-15090D01*
X37490Y-15165D01*
X37472Y-15203D01*
X37434Y-15240D01*
X37378Y-15259D01*
X37284Y-15259D01*
X37828Y-15240D02*
X37790Y-15259D01*
X37715Y-15259D01*
X37678Y-15240D01*
X37659Y-15203D01*
X37659Y-15053D01*
X37678Y-15015D01*
X37715Y-14996D01*
X37790Y-14996D01*
X37828Y-15015D01*
X37847Y-15053D01*
X37847Y-15090D01*
X37659Y-15128D01*
X37959Y-14996D02*
X38109Y-14996D01*
X38015Y-15259D02*
X38015Y-14921D01*
X38034Y-14884D01*
X38071Y-14865D01*
X38109Y-14865D01*
X38409Y-15259D02*
X38409Y-15053D01*
X38390Y-15015D01*
X38353Y-14996D01*
X38278Y-14996D01*
X38240Y-15015D01*
X38409Y-15240D02*
X38371Y-15259D01*
X38278Y-15259D01*
X38240Y-15240D01*
X38221Y-15203D01*
X38221Y-15165D01*
X38240Y-15128D01*
X38278Y-15109D01*
X38371Y-15109D01*
X38409Y-15090D01*
X38765Y-14996D02*
X38765Y-15259D01*
X38596Y-14996D02*
X38596Y-15203D01*
X38615Y-15240D01*
X38653Y-15259D01*
X38709Y-15259D01*
X38746Y-15240D01*
X38765Y-15221D01*
X39009Y-15259D02*
X38971Y-15240D01*
X38953Y-15203D01*
X38953Y-14865D01*
X39103Y-14996D02*
X39253Y-14996D01*
X39159Y-14865D02*
X39159Y-15203D01*
X39178Y-15240D01*
X39215Y-15259D01*
X39253Y-15259D01*
X39684Y-15259D02*
X39684Y-14865D01*
X39909Y-15259D01*
X39909Y-14865D01*
X40377Y-14846D02*
X40040Y-15353D01*
X40734Y-15221D02*
X40715Y-15240D01*
X40659Y-15259D01*
X40621Y-15259D01*
X40565Y-15240D01*
X40527Y-15203D01*
X40509Y-15165D01*
X40490Y-15090D01*
X40490Y-15034D01*
X40509Y-14959D01*
X40527Y-14921D01*
X40565Y-14884D01*
X40621Y-14865D01*
X40659Y-14865D01*
X40715Y-14884D01*
X40734Y-14903D01*
X40000Y-22750D02*
G75*
G03X40000Y-22750I-250J0D01*
G74*
G01*
X40000Y-17750D02*
G75*
G03X40000Y-17750I-250J0D01*
G74*
G01*
X34250Y-16500D02*
G75*
G03X34250Y-16500I-250J0D01*
G74*
G01*
G54D12*
X42000Y-16950D02*
X39300Y-16950D01*
X39300Y-16950D02*
X39300Y-15550D01*
X39300Y-15550D02*
X42700Y-15550D01*
X42700Y-15550D02*
X42700Y-16950D01*
X42700Y-16950D02*
X42000Y-16950D01*
X40000Y-19000D02*
X39750Y-19000D01*
X39750Y-19000D02*
X39750Y-20000D01*
X39750Y-20000D02*
X40000Y-20000D01*
X42950Y-20850D02*
X40050Y-20850D01*
X42950Y-18150D02*
X40050Y-18150D01*
X40050Y-20850D02*
X40050Y-18150D01*
X42950Y-18150D02*
X42950Y-20850D01*
X34400Y-21100D02*
X34000Y-21100D01*
X34000Y-21100D02*
X34000Y-22900D01*
X34000Y-22900D02*
X34400Y-22900D01*
X36600Y-27100D02*
X34400Y-27100D01*
X36600Y-22100D02*
X36600Y-27100D01*
X34400Y-22100D02*
X34400Y-27100D01*
X34400Y-17000D02*
X34400Y-16900D01*
X34400Y-16900D02*
X34600Y-16900D01*
X36500Y-16900D02*
X36600Y-16900D01*
X36600Y-16900D02*
X36600Y-17000D01*
X36600Y-22100D02*
X36600Y-21950D01*
X34400Y-22000D02*
X34400Y-22100D01*
X36600Y-22000D02*
X36600Y-17000D01*
X36500Y-16900D02*
X34500Y-16900D01*
X34400Y-17000D02*
X34400Y-22000D01*
X24150Y-21100D02*
X24650Y-21100D01*
X24650Y-21100D02*
X24650Y-22900D01*
X24650Y-22900D02*
X24150Y-22900D01*
X24150Y-28500D02*
X24150Y-28700D01*
X24150Y-28700D02*
X24350Y-28700D01*
X27850Y-28500D02*
X27850Y-28700D01*
X27850Y-28700D02*
X27700Y-28700D01*
X24150Y-15500D02*
X24150Y-15300D01*
X24150Y-15300D02*
X24250Y-15300D01*
X27700Y-15300D02*
X27850Y-15300D01*
X27850Y-15300D02*
X27850Y-15500D01*
X26000Y-15300D02*
X27750Y-15300D01*
X27850Y-15500D02*
X27850Y-28500D01*
X27800Y-28700D02*
X24300Y-28700D01*
X24150Y-28500D02*
X24150Y-15500D01*
X24250Y-15300D02*
X26000Y-15300D01*
X40000Y-25250D02*
X39700Y-25250D01*
X39700Y-25250D02*
X39700Y-26250D01*
X39700Y-26250D02*
X40000Y-26250D01*
X42950Y-23150D02*
X42950Y-28350D01*
X42950Y-28350D02*
X40000Y-28350D01*
X40000Y-28350D02*
X40000Y-23150D01*
X40000Y-23150D02*
X42950Y-23150D01*
G54D13*
X45400Y-16000D02*
G75*
G03X45400Y-16000I-900J0D01*
G74*
G01*
X45400Y-28000D02*
G75*
G03X45400Y-28000I-900J0D01*
G74*
G01*
G54D10*
X37425Y-25176D02*
X37368Y-25148D01*
X37284Y-25148D01*
X37200Y-25176D01*
X37143Y-25232D01*
X37115Y-25289D01*
X37087Y-25401D01*
X37087Y-25485D01*
X37115Y-25598D01*
X37143Y-25654D01*
X37200Y-25710D01*
X37284Y-25739D01*
X37340Y-25739D01*
X37425Y-25710D01*
X37453Y-25682D01*
X37453Y-25485D01*
X37340Y-25485D01*
X37706Y-25739D02*
X37706Y-25148D01*
X38043Y-25739D01*
X38043Y-25148D01*
X38324Y-25739D02*
X38324Y-25148D01*
X38465Y-25148D01*
X38549Y-25176D01*
X38606Y-25232D01*
X38634Y-25289D01*
X38662Y-25401D01*
X38662Y-25485D01*
X38634Y-25598D01*
X38606Y-25654D01*
X38549Y-25710D01*
X38465Y-25739D01*
X38324Y-25739D01*
X37425Y-24176D02*
X37368Y-24148D01*
X37284Y-24148D01*
X37200Y-24176D01*
X37143Y-24232D01*
X37115Y-24289D01*
X37087Y-24401D01*
X37087Y-24485D01*
X37115Y-24598D01*
X37143Y-24654D01*
X37200Y-24710D01*
X37284Y-24739D01*
X37340Y-24739D01*
X37425Y-24710D01*
X37453Y-24682D01*
X37453Y-24485D01*
X37340Y-24485D01*
X37706Y-24739D02*
X37706Y-24148D01*
X38043Y-24739D01*
X38043Y-24148D01*
X38324Y-24739D02*
X38324Y-24148D01*
X38465Y-24148D01*
X38549Y-24176D01*
X38606Y-24232D01*
X38634Y-24289D01*
X38662Y-24401D01*
X38662Y-24485D01*
X38634Y-24598D01*
X38606Y-24654D01*
X38549Y-24710D01*
X38465Y-24739D01*
X38324Y-24739D01*
X37425Y-23176D02*
X37368Y-23148D01*
X37284Y-23148D01*
X37200Y-23176D01*
X37143Y-23232D01*
X37115Y-23289D01*
X37087Y-23401D01*
X37087Y-23485D01*
X37115Y-23598D01*
X37143Y-23654D01*
X37200Y-23710D01*
X37284Y-23739D01*
X37340Y-23739D01*
X37425Y-23710D01*
X37453Y-23682D01*
X37453Y-23485D01*
X37340Y-23485D01*
X37706Y-23739D02*
X37706Y-23148D01*
X38043Y-23739D01*
X38043Y-23148D01*
X38324Y-23739D02*
X38324Y-23148D01*
X38465Y-23148D01*
X38549Y-23176D01*
X38606Y-23232D01*
X38634Y-23289D01*
X38662Y-23401D01*
X38662Y-23485D01*
X38634Y-23598D01*
X38606Y-23654D01*
X38549Y-23710D01*
X38465Y-23739D01*
X38324Y-23739D01*
X37425Y-26176D02*
X37368Y-26148D01*
X37284Y-26148D01*
X37200Y-26176D01*
X37143Y-26232D01*
X37115Y-26289D01*
X37087Y-26401D01*
X37087Y-26485D01*
X37115Y-26598D01*
X37143Y-26654D01*
X37200Y-26710D01*
X37284Y-26739D01*
X37340Y-26739D01*
X37425Y-26710D01*
X37453Y-26682D01*
X37453Y-26485D01*
X37340Y-26485D01*
X37706Y-26739D02*
X37706Y-26148D01*
X38043Y-26739D01*
X38043Y-26148D01*
X38324Y-26739D02*
X38324Y-26148D01*
X38465Y-26148D01*
X38549Y-26176D01*
X38606Y-26232D01*
X38634Y-26289D01*
X38662Y-26401D01*
X38662Y-26485D01*
X38634Y-26598D01*
X38606Y-26654D01*
X38549Y-26710D01*
X38465Y-26739D01*
X38324Y-26739D01*
X37425Y-21176D02*
X37368Y-21148D01*
X37284Y-21148D01*
X37200Y-21176D01*
X37143Y-21232D01*
X37115Y-21289D01*
X37087Y-21401D01*
X37087Y-21485D01*
X37115Y-21598D01*
X37143Y-21654D01*
X37200Y-21710D01*
X37284Y-21739D01*
X37340Y-21739D01*
X37425Y-21710D01*
X37453Y-21682D01*
X37453Y-21485D01*
X37340Y-21485D01*
X37706Y-21739D02*
X37706Y-21148D01*
X38043Y-21739D01*
X38043Y-21148D01*
X38324Y-21739D02*
X38324Y-21148D01*
X38465Y-21148D01*
X38549Y-21176D01*
X38606Y-21232D01*
X38634Y-21289D01*
X38662Y-21401D01*
X38662Y-21485D01*
X38634Y-21598D01*
X38606Y-21654D01*
X38549Y-21710D01*
X38465Y-21739D01*
X38324Y-21739D01*
X37425Y-20176D02*
X37368Y-20148D01*
X37284Y-20148D01*
X37200Y-20176D01*
X37143Y-20232D01*
X37115Y-20289D01*
X37087Y-20401D01*
X37087Y-20485D01*
X37115Y-20598D01*
X37143Y-20654D01*
X37200Y-20710D01*
X37284Y-20739D01*
X37340Y-20739D01*
X37425Y-20710D01*
X37453Y-20682D01*
X37453Y-20485D01*
X37340Y-20485D01*
X37706Y-20739D02*
X37706Y-20148D01*
X38043Y-20739D01*
X38043Y-20148D01*
X38324Y-20739D02*
X38324Y-20148D01*
X38465Y-20148D01*
X38549Y-20176D01*
X38606Y-20232D01*
X38634Y-20289D01*
X38662Y-20401D01*
X38662Y-20485D01*
X38634Y-20598D01*
X38606Y-20654D01*
X38549Y-20710D01*
X38465Y-20739D01*
X38324Y-20739D01*
X37425Y-19176D02*
X37368Y-19148D01*
X37284Y-19148D01*
X37200Y-19176D01*
X37143Y-19232D01*
X37115Y-19289D01*
X37087Y-19401D01*
X37087Y-19485D01*
X37115Y-19598D01*
X37143Y-19654D01*
X37200Y-19710D01*
X37284Y-19739D01*
X37340Y-19739D01*
X37425Y-19710D01*
X37453Y-19682D01*
X37453Y-19485D01*
X37340Y-19485D01*
X37706Y-19739D02*
X37706Y-19148D01*
X38043Y-19739D01*
X38043Y-19148D01*
X38324Y-19739D02*
X38324Y-19148D01*
X38465Y-19148D01*
X38549Y-19176D01*
X38606Y-19232D01*
X38634Y-19289D01*
X38662Y-19401D01*
X38662Y-19485D01*
X38634Y-19598D01*
X38606Y-19654D01*
X38549Y-19710D01*
X38465Y-19739D01*
X38324Y-19739D01*
X37425Y-18176D02*
X37368Y-18148D01*
X37284Y-18148D01*
X37200Y-18176D01*
X37143Y-18232D01*
X37115Y-18289D01*
X37087Y-18401D01*
X37087Y-18485D01*
X37115Y-18598D01*
X37143Y-18654D01*
X37200Y-18710D01*
X37284Y-18739D01*
X37340Y-18739D01*
X37425Y-18710D01*
X37453Y-18682D01*
X37453Y-18485D01*
X37340Y-18485D01*
X37706Y-18739D02*
X37706Y-18148D01*
X38043Y-18739D01*
X38043Y-18148D01*
X38324Y-18739D02*
X38324Y-18148D01*
X38465Y-18148D01*
X38549Y-18176D01*
X38606Y-18232D01*
X38634Y-18289D01*
X38662Y-18401D01*
X38662Y-18485D01*
X38634Y-18598D01*
X38606Y-18654D01*
X38549Y-18710D01*
X38465Y-18739D01*
X38324Y-18739D01*
X37425Y-22176D02*
X37368Y-22148D01*
X37284Y-22148D01*
X37200Y-22176D01*
X37143Y-22232D01*
X37115Y-22289D01*
X37087Y-22401D01*
X37087Y-22485D01*
X37115Y-22598D01*
X37143Y-22654D01*
X37200Y-22710D01*
X37284Y-22739D01*
X37340Y-22739D01*
X37425Y-22710D01*
X37453Y-22682D01*
X37453Y-22485D01*
X37340Y-22485D01*
X37706Y-22739D02*
X37706Y-22148D01*
X38043Y-22739D01*
X38043Y-22148D01*
X38324Y-22739D02*
X38324Y-22148D01*
X38465Y-22148D01*
X38549Y-22176D01*
X38606Y-22232D01*
X38634Y-22289D01*
X38662Y-22401D01*
X38662Y-22485D01*
X38634Y-22598D01*
X38606Y-22654D01*
X38549Y-22710D01*
X38465Y-22739D01*
X38324Y-22739D01*
X37076Y-17739D02*
X37076Y-17148D01*
X37414Y-17739D01*
X37414Y-17148D01*
X38117Y-17120D02*
X37610Y-17879D01*
X38651Y-17682D02*
X38623Y-17710D01*
X38538Y-17739D01*
X38482Y-17739D01*
X38398Y-17710D01*
X38342Y-17654D01*
X38314Y-17598D01*
X38285Y-17485D01*
X38285Y-17401D01*
X38314Y-17289D01*
X38342Y-17232D01*
X38398Y-17176D01*
X38482Y-17148D01*
X38538Y-17148D01*
X38623Y-17176D01*
X38651Y-17204D01*
X33337Y-26148D02*
X33056Y-26148D01*
X33028Y-26429D01*
X33056Y-26401D01*
X33112Y-26373D01*
X33253Y-26373D01*
X33309Y-26401D01*
X33337Y-26429D01*
X33365Y-26485D01*
X33365Y-26626D01*
X33337Y-26682D01*
X33309Y-26710D01*
X33253Y-26739D01*
X33112Y-26739D01*
X33056Y-26710D01*
X33028Y-26682D01*
X33534Y-26148D02*
X33731Y-26739D01*
X33928Y-26148D01*
X31175Y-25739D02*
X31175Y-25148D01*
X31315Y-25148D01*
X31400Y-25176D01*
X31456Y-25232D01*
X31484Y-25289D01*
X31512Y-25401D01*
X31512Y-25485D01*
X31484Y-25598D01*
X31456Y-25654D01*
X31400Y-25710D01*
X31315Y-25739D01*
X31175Y-25739D01*
X31962Y-25429D02*
X32046Y-25457D01*
X32075Y-25485D01*
X32103Y-25542D01*
X32103Y-25626D01*
X32075Y-25682D01*
X32046Y-25710D01*
X31990Y-25739D01*
X31765Y-25739D01*
X31765Y-25148D01*
X31962Y-25148D01*
X32018Y-25176D01*
X32046Y-25204D01*
X32075Y-25260D01*
X32075Y-25317D01*
X32046Y-25373D01*
X32018Y-25401D01*
X31962Y-25429D01*
X31765Y-25429D01*
X32665Y-25176D02*
X32609Y-25148D01*
X32525Y-25148D01*
X32440Y-25176D01*
X32384Y-25232D01*
X32356Y-25289D01*
X32328Y-25401D01*
X32328Y-25485D01*
X32356Y-25598D01*
X32384Y-25654D01*
X32440Y-25710D01*
X32525Y-25739D01*
X32581Y-25739D01*
X32665Y-25710D01*
X32693Y-25682D01*
X32693Y-25485D01*
X32581Y-25485D01*
X33284Y-25739D02*
X33087Y-25457D01*
X32946Y-25739D02*
X32946Y-25148D01*
X33171Y-25148D01*
X33228Y-25176D01*
X33256Y-25204D01*
X33284Y-25260D01*
X33284Y-25345D01*
X33256Y-25401D01*
X33228Y-25429D01*
X33171Y-25457D01*
X32946Y-25457D01*
X33931Y-25795D02*
X33874Y-25767D01*
X33818Y-25710D01*
X33734Y-25626D01*
X33677Y-25598D01*
X33621Y-25598D01*
X33649Y-25739D02*
X33593Y-25710D01*
X33537Y-25654D01*
X33509Y-25542D01*
X33509Y-25345D01*
X33537Y-25232D01*
X33593Y-25176D01*
X33649Y-25148D01*
X33762Y-25148D01*
X33818Y-25176D01*
X33874Y-25232D01*
X33902Y-25345D01*
X33902Y-25542D01*
X33874Y-25654D01*
X33818Y-25710D01*
X33762Y-25739D01*
X33649Y-25739D01*
X31792Y-24739D02*
X31595Y-24457D01*
X31454Y-24739D02*
X31454Y-24148D01*
X31679Y-24148D01*
X31736Y-24176D01*
X31764Y-24204D01*
X31792Y-24260D01*
X31792Y-24345D01*
X31764Y-24401D01*
X31736Y-24429D01*
X31679Y-24457D01*
X31454Y-24457D01*
X32045Y-24429D02*
X32242Y-24429D01*
X32326Y-24739D02*
X32045Y-24739D01*
X32045Y-24148D01*
X32326Y-24148D01*
X32551Y-24710D02*
X32635Y-24739D01*
X32776Y-24739D01*
X32832Y-24710D01*
X32860Y-24682D01*
X32889Y-24626D01*
X32889Y-24570D01*
X32860Y-24514D01*
X32832Y-24485D01*
X32776Y-24457D01*
X32664Y-24429D01*
X32607Y-24401D01*
X32579Y-24373D01*
X32551Y-24317D01*
X32551Y-24260D01*
X32579Y-24204D01*
X32607Y-24176D01*
X32664Y-24148D01*
X32804Y-24148D01*
X32889Y-24176D01*
X33142Y-24429D02*
X33338Y-24429D01*
X33423Y-24739D02*
X33142Y-24739D01*
X33142Y-24148D01*
X33423Y-24148D01*
X33592Y-24148D02*
X33929Y-24148D01*
X33760Y-24739D02*
X33760Y-24148D01*
X29964Y-23148D02*
X30301Y-23148D01*
X30133Y-23739D02*
X30133Y-23148D01*
X30498Y-23739D02*
X30498Y-23148D01*
X30639Y-23148D01*
X30723Y-23176D01*
X30779Y-23232D01*
X30807Y-23289D01*
X30836Y-23401D01*
X30836Y-23485D01*
X30807Y-23598D01*
X30779Y-23654D01*
X30723Y-23710D01*
X30639Y-23739D01*
X30498Y-23739D01*
X31201Y-23148D02*
X31314Y-23148D01*
X31370Y-23176D01*
X31426Y-23232D01*
X31454Y-23345D01*
X31454Y-23542D01*
X31426Y-23654D01*
X31370Y-23710D01*
X31314Y-23739D01*
X31201Y-23739D01*
X31145Y-23710D01*
X31089Y-23654D01*
X31061Y-23542D01*
X31061Y-23345D01*
X31089Y-23232D01*
X31145Y-23176D01*
X31201Y-23148D01*
X32129Y-23120D02*
X31623Y-23879D01*
X32298Y-23710D02*
X32382Y-23739D01*
X32523Y-23739D01*
X32579Y-23710D01*
X32607Y-23682D01*
X32635Y-23626D01*
X32635Y-23570D01*
X32607Y-23514D01*
X32579Y-23485D01*
X32523Y-23457D01*
X32410Y-23429D01*
X32354Y-23401D01*
X32326Y-23373D01*
X32298Y-23317D01*
X32298Y-23260D01*
X32326Y-23204D01*
X32354Y-23176D01*
X32410Y-23148D01*
X32551Y-23148D01*
X32635Y-23176D01*
X32832Y-23148D02*
X32973Y-23739D01*
X33085Y-23317D01*
X33198Y-23739D01*
X33338Y-23148D01*
X33676Y-23148D02*
X33788Y-23148D01*
X33845Y-23176D01*
X33901Y-23232D01*
X33929Y-23345D01*
X33929Y-23542D01*
X33901Y-23654D01*
X33845Y-23710D01*
X33788Y-23739D01*
X33676Y-23739D01*
X33620Y-23710D01*
X33563Y-23654D01*
X33535Y-23542D01*
X33535Y-23345D01*
X33563Y-23232D01*
X33620Y-23176D01*
X33676Y-23148D01*
X32142Y-22739D02*
X31945Y-22457D01*
X31804Y-22739D02*
X31804Y-22148D01*
X32029Y-22148D01*
X32086Y-22176D01*
X32114Y-22204D01*
X32142Y-22260D01*
X32142Y-22345D01*
X32114Y-22401D01*
X32086Y-22429D01*
X32029Y-22457D01*
X31804Y-22457D01*
X32310Y-22148D02*
X32648Y-22148D01*
X32479Y-22739D02*
X32479Y-22148D01*
X33182Y-22682D02*
X33154Y-22710D01*
X33070Y-22739D01*
X33014Y-22739D01*
X32929Y-22710D01*
X32873Y-22654D01*
X32845Y-22598D01*
X32817Y-22485D01*
X32817Y-22401D01*
X32845Y-22289D01*
X32873Y-22232D01*
X32929Y-22176D01*
X33014Y-22148D01*
X33070Y-22148D01*
X33154Y-22176D01*
X33182Y-22204D01*
X33435Y-22739D02*
X33435Y-22148D01*
X33773Y-22739D02*
X33520Y-22401D01*
X33773Y-22148D02*
X33435Y-22485D01*
X28212Y-21148D02*
X28550Y-21148D01*
X28381Y-21739D02*
X28381Y-21148D01*
X29084Y-21682D02*
X29056Y-21710D01*
X28972Y-21739D01*
X28915Y-21739D01*
X28831Y-21710D01*
X28775Y-21654D01*
X28747Y-21598D01*
X28719Y-21485D01*
X28719Y-21401D01*
X28747Y-21289D01*
X28775Y-21232D01*
X28831Y-21176D01*
X28915Y-21148D01*
X28972Y-21148D01*
X29056Y-21176D01*
X29084Y-21204D01*
X29337Y-21739D02*
X29337Y-21148D01*
X29675Y-21739D02*
X29422Y-21401D01*
X29675Y-21148D02*
X29337Y-21485D01*
X30350Y-21120D02*
X29843Y-21879D01*
X30518Y-21710D02*
X30603Y-21739D01*
X30743Y-21739D01*
X30800Y-21710D01*
X30828Y-21682D01*
X30856Y-21626D01*
X30856Y-21570D01*
X30828Y-21514D01*
X30800Y-21485D01*
X30743Y-21457D01*
X30631Y-21429D01*
X30575Y-21401D01*
X30546Y-21373D01*
X30518Y-21317D01*
X30518Y-21260D01*
X30546Y-21204D01*
X30575Y-21176D01*
X30631Y-21148D01*
X30771Y-21148D01*
X30856Y-21176D01*
X31053Y-21148D02*
X31193Y-21739D01*
X31306Y-21317D01*
X31418Y-21739D01*
X31559Y-21148D01*
X31784Y-21739D02*
X31784Y-21148D01*
X31924Y-21148D01*
X32009Y-21176D01*
X32065Y-21232D01*
X32093Y-21289D01*
X32121Y-21401D01*
X32121Y-21485D01*
X32093Y-21598D01*
X32065Y-21654D01*
X32009Y-21710D01*
X31924Y-21739D01*
X31784Y-21739D01*
X32712Y-21682D02*
X32684Y-21710D01*
X32599Y-21739D01*
X32543Y-21739D01*
X32459Y-21710D01*
X32402Y-21654D01*
X32374Y-21598D01*
X32346Y-21485D01*
X32346Y-21401D01*
X32374Y-21289D01*
X32402Y-21232D01*
X32459Y-21176D01*
X32543Y-21148D01*
X32599Y-21148D01*
X32684Y-21176D01*
X32712Y-21204D01*
X33246Y-21739D02*
X32965Y-21739D01*
X32965Y-21148D01*
X33443Y-21739D02*
X33443Y-21148D01*
X33780Y-21739D02*
X33527Y-21401D01*
X33780Y-21148D02*
X33443Y-21485D01*
X29064Y-20148D02*
X29401Y-20148D01*
X29233Y-20739D02*
X29233Y-20148D01*
X29598Y-20739D02*
X29598Y-20148D01*
X29795Y-20570D01*
X29992Y-20148D01*
X29992Y-20739D01*
X30245Y-20710D02*
X30329Y-20739D01*
X30470Y-20739D01*
X30526Y-20710D01*
X30554Y-20682D01*
X30582Y-20626D01*
X30582Y-20570D01*
X30554Y-20514D01*
X30526Y-20485D01*
X30470Y-20457D01*
X30357Y-20429D01*
X30301Y-20401D01*
X30273Y-20373D01*
X30245Y-20317D01*
X30245Y-20260D01*
X30273Y-20204D01*
X30301Y-20176D01*
X30357Y-20148D01*
X30498Y-20148D01*
X30582Y-20176D01*
X31257Y-20120D02*
X30751Y-20879D01*
X31426Y-20710D02*
X31510Y-20739D01*
X31651Y-20739D01*
X31707Y-20710D01*
X31735Y-20682D01*
X31764Y-20626D01*
X31764Y-20570D01*
X31735Y-20514D01*
X31707Y-20485D01*
X31651Y-20457D01*
X31539Y-20429D01*
X31482Y-20401D01*
X31454Y-20373D01*
X31426Y-20317D01*
X31426Y-20260D01*
X31454Y-20204D01*
X31482Y-20176D01*
X31539Y-20148D01*
X31679Y-20148D01*
X31764Y-20176D01*
X31960Y-20148D02*
X32101Y-20739D01*
X32213Y-20317D01*
X32326Y-20739D01*
X32467Y-20148D01*
X32692Y-20739D02*
X32692Y-20148D01*
X32832Y-20148D01*
X32917Y-20176D01*
X32973Y-20232D01*
X33001Y-20289D01*
X33029Y-20401D01*
X33029Y-20485D01*
X33001Y-20598D01*
X32973Y-20654D01*
X32917Y-20710D01*
X32832Y-20739D01*
X32692Y-20739D01*
X33282Y-20739D02*
X33282Y-20148D01*
X33676Y-20148D02*
X33788Y-20148D01*
X33845Y-20176D01*
X33901Y-20232D01*
X33929Y-20345D01*
X33929Y-20542D01*
X33901Y-20654D01*
X33845Y-20710D01*
X33788Y-20739D01*
X33676Y-20739D01*
X33620Y-20710D01*
X33563Y-20654D01*
X33535Y-20542D01*
X33535Y-20345D01*
X33563Y-20232D01*
X33620Y-20176D01*
X33676Y-20148D01*
X32795Y-19148D02*
X33132Y-19148D01*
X32964Y-19739D02*
X32964Y-19148D01*
X33329Y-19739D02*
X33329Y-19148D01*
X33470Y-19148D01*
X33554Y-19176D01*
X33610Y-19232D01*
X33639Y-19289D01*
X33667Y-19401D01*
X33667Y-19485D01*
X33639Y-19598D01*
X33610Y-19654D01*
X33554Y-19710D01*
X33470Y-19739D01*
X33329Y-19739D01*
X33920Y-19739D02*
X33920Y-19148D01*
X31979Y-18148D02*
X32317Y-18148D01*
X32148Y-18739D02*
X32148Y-18148D01*
X32851Y-18739D02*
X32654Y-18457D01*
X32514Y-18739D02*
X32514Y-18148D01*
X32739Y-18148D01*
X32795Y-18176D01*
X32823Y-18204D01*
X32851Y-18260D01*
X32851Y-18345D01*
X32823Y-18401D01*
X32795Y-18429D01*
X32739Y-18457D01*
X32514Y-18457D01*
X33076Y-18710D02*
X33160Y-18739D01*
X33301Y-18739D01*
X33357Y-18710D01*
X33385Y-18682D01*
X33414Y-18626D01*
X33414Y-18570D01*
X33385Y-18514D01*
X33357Y-18485D01*
X33301Y-18457D01*
X33189Y-18429D01*
X33132Y-18401D01*
X33104Y-18373D01*
X33076Y-18317D01*
X33076Y-18260D01*
X33104Y-18204D01*
X33132Y-18176D01*
X33189Y-18148D01*
X33329Y-18148D01*
X33414Y-18176D01*
X33582Y-18148D02*
X33920Y-18148D01*
X33751Y-18739D02*
X33751Y-18148D01*
X31873Y-17148D02*
X32070Y-17739D01*
X32267Y-17148D01*
X32379Y-17148D02*
X32717Y-17148D01*
X32548Y-17739D02*
X32548Y-17148D01*
X32914Y-17739D02*
X32914Y-17345D01*
X32914Y-17457D02*
X32942Y-17401D01*
X32970Y-17373D01*
X33026Y-17345D01*
X33082Y-17345D01*
X33504Y-17710D02*
X33448Y-17739D01*
X33335Y-17739D01*
X33279Y-17710D01*
X33251Y-17654D01*
X33251Y-17429D01*
X33279Y-17373D01*
X33335Y-17345D01*
X33448Y-17345D01*
X33504Y-17373D01*
X33532Y-17429D01*
X33532Y-17485D01*
X33251Y-17542D01*
X33701Y-17345D02*
X33926Y-17345D01*
X33785Y-17739D02*
X33785Y-17232D01*
X33813Y-17176D01*
X33870Y-17148D01*
X33926Y-17148D01*
M02*
