M48
;DRILL file {Pcbnew (2013-may-18)-stable} date Wed 29 Apr 2015 08:58:12 PM CEST
;FORMAT={-:-/ absolute / inch / decimal}
FMAT,2
INCH,TZ
T1C0.025
T2C0.039
T3C0.120
%
G90
G05
M72
T1
X2.46Y-1.58
X2.46Y-2.82
X2.74Y-1.58
X2.74Y-2.82
X3.115Y-1.635
X3.115Y-2.665
X3.55Y-1.51
X3.55Y-1.65
X3.55Y-2.75
X3.55Y-2.89
X3.925Y-2.6
X3.935Y-1.955
X3.95Y-1.85
X3.95Y-2.05
X4.045Y-1.775
X4.1Y-2.11
X4.1Y-2.29
X4.2Y-2.11
X4.2Y-2.29
X4.25Y-1.775
X4.25Y-2.15
X4.275Y-2.25
X4.325Y-1.85
X4.325Y-2.35
X4.325Y-2.45
X4.325Y-2.55
X4.35Y-2.4
X4.35Y-2.5
X4.375Y-1.9
X4.375Y-2.25
X4.425Y-1.95
X4.475Y-2.
X4.475Y-2.15
X4.525Y-2.05
X4.545Y-1.985
X4.545Y-2.455
T2
X2.55Y-1.75
X2.55Y-1.85
X2.55Y-1.95
X2.55Y-2.05
X2.55Y-2.15
X2.55Y-2.25
X2.55Y-2.35
X2.55Y-2.45
X2.55Y-2.55
X2.55Y-2.65
X2.65Y-1.75
X2.65Y-1.85
X2.65Y-1.95
X2.65Y-2.05
X2.65Y-2.15
X2.65Y-2.25
X2.65Y-2.35
X2.65Y-2.45
X2.65Y-2.55
X2.65Y-2.65
X3.5Y-1.75
X3.5Y-1.85
X3.5Y-1.95
X3.5Y-2.05
X3.5Y-2.15
X3.5Y-2.25
X3.5Y-2.35
X3.5Y-2.45
X3.5Y-2.55
X3.5Y-2.65
X3.6Y-1.75
X3.6Y-1.85
X3.6Y-1.95
X3.6Y-2.05
X3.6Y-2.15
X3.6Y-2.25
X3.6Y-2.35
X3.6Y-2.45
X3.6Y-2.55
X3.6Y-2.65
X4.Y-1.625
X4.1Y-1.625
X4.2Y-1.625
T3
X4.45Y-1.6
X4.45Y-2.8
T0
M30
