G04 (created by PCBNEW (2013-may-18)-stable) date Wed 29 Apr 2015 08:57:56 PM CEST*
%MOIN*%
G04 Gerber Fmt 3.4, Leading zero omitted, Abs format*
%FSLAX34Y34*%
G01*
G70*
G90*
G04 APERTURE LIST*
%ADD10C,0.00590551*%
%ADD11C,0.0590551*%
%ADD12O,0.0590551X0.0590551*%
%ADD13C,0.16*%
%ADD14C,0.035*%
G04 APERTURE END LIST*
G54D10*
G54D11*
X42000Y-16250D03*
X41000Y-16250D03*
X40000Y-16250D03*
X35000Y-17500D03*
X36000Y-17500D03*
X35000Y-18500D03*
X36000Y-18500D03*
X35000Y-19500D03*
X36000Y-19500D03*
X35000Y-20500D03*
X36000Y-20500D03*
X35000Y-21500D03*
X36000Y-21500D03*
X35000Y-22500D03*
X36000Y-22500D03*
X35000Y-23500D03*
X36000Y-23500D03*
X35000Y-24500D03*
X36000Y-24500D03*
X35000Y-25500D03*
X36000Y-25500D03*
X35000Y-26500D03*
X36000Y-26500D03*
G54D12*
X25500Y-17500D03*
G54D11*
X26500Y-17500D03*
X25500Y-18500D03*
X26500Y-18500D03*
X25500Y-19500D03*
X26500Y-19500D03*
X25500Y-20500D03*
X26500Y-20500D03*
X25500Y-21500D03*
X26500Y-21500D03*
X25500Y-22500D03*
X26500Y-22500D03*
X25500Y-23500D03*
X26500Y-23500D03*
X25500Y-24500D03*
X26500Y-24500D03*
X25500Y-25500D03*
X26500Y-25500D03*
X25500Y-26500D03*
X26500Y-26500D03*
G54D13*
X44500Y-16000D03*
X44500Y-28000D03*
G54D14*
X31150Y-16350D03*
X31150Y-26650D03*
X45450Y-19850D03*
X45450Y-24550D03*
X41000Y-21100D03*
X41000Y-22900D03*
X42500Y-17750D03*
X39350Y-19550D03*
X40450Y-17750D03*
X42000Y-22900D03*
X42000Y-21100D03*
X35500Y-27500D03*
X35500Y-28900D03*
X35500Y-16500D03*
X35500Y-15100D03*
X24600Y-15800D03*
X27400Y-15800D03*
X39250Y-26000D03*
X24600Y-28200D03*
X27400Y-28200D03*
X39500Y-20500D03*
X45250Y-20500D03*
X43250Y-25500D03*
X43500Y-24000D03*
X43750Y-22500D03*
X42750Y-22500D03*
X43750Y-19000D03*
X43500Y-25000D03*
X44750Y-21500D03*
X42500Y-21500D03*
X44750Y-20000D03*
X43250Y-24500D03*
X44250Y-19500D03*
X43250Y-18500D03*
X43250Y-23500D03*
X39500Y-18500D03*
M02*
